<mxfile host="app.diagrams.net" modified="2023-12-24T15:17:58.192Z" agent="Mozilla/5.0 (Macintosh; Intel Mac OS X 10_15_7) AppleWebKit/537.36 (KHTML, like Gecko) Chrome/120.0.0.0 Safari/537.36" version="22.1.11" etag="I2nT7fpFCNpHj99lCBIK" type="github">
  <diagram name="第 1 页" id="JUm2Xl7rqo4nJ8CD2gHi">
    <mxGraphModel>
      <root>
        <mxCell id="0" />
        <mxCell id="1" parent="0" />
      </root>
    </mxGraphModel>
  </diagram>
</mxfile>
